<?xml version="1.0" encoding="UTF-8"?>
<svg version="1.1" id="Capa_1" xmlns="http://www.w3.org/2000/svg" xmlns:xlink="http://www.w3.org/1999/xlink" x="0px" y="0px" viewBox="0 0 512 512" style="enable-background:new 0 0 512 512;" xml:space="preserve">
	<path fill="#5789C7" d="M185.2,278.8c11.5,16.5,23.3,32.8,35,49.1l17.4,24.4c1.3,1.9,2.7,3.7,4,5.6c1.3,1.9,2.4,2.7,4.1,4.3   c0,0,0.8,0.6,0.8,0.6c1.7,1.2,2.2,1.3,5.2,1.6c1.8,0.2,5.9,0.5,7.1,0.3c0-8.9-0.3-18.1-0.3-27.1V139.3c0-1.4,0-4.5,0-4.4   c0-1.7,0-1.7,12.4-1.8h83.5c33.5,0,71.9,0.9,92.2,31.4c9.9,14.8,10.7,35.9,4.7,52.2c-3,8.3-8,16-14.3,22.4   c-6.3,6.5-13.9,10.4-22.1,14c17.2,4.4,31.4,12.9,40.8,28c9.4,15.2,10.9,34.5,7.2,51.6c-3.5,16.3-12.8,31.3-27.4,40.3   c-15.7,9.6-34.5,14-52.9,15.1c-19.7,1.2-39.6,0.4-59.4,0.4l-59.6,0c-9.6,0-19.1-0.1-28.7,0c-3.5-0.1-4.5-0.9-5.4-1.6   c-1.8-1.6-1.9-2.1-2.8-3.2c-2.7-3.8-5.5-7.6-8.2-11.5c-10.9-15.3-21.9-30.5-32.8-45.8c-6.2-8.7-12.5-17.5-18.7-26.2   c-3-4.2-6.1-8.5-9.1-12.7c-1.6-2.2-3.1-4.4-4.7-6.5c-1.5-2-2.2-1.8-4.9-1.8H81.5v101.2c0,1.8,0,3.4,0,5.3c0,1.5,0,1.5-1.8,1.6   l-23.7,0.2c-2.8,0-2.8,0-2.9-1c-0.1-2.1-0.1-5.7-0.1-7.9V143.1c0-2.6-0.1-5.5,0-8.3c0-2.2,0.5-2.2,4.6-2.2l38.8,0.2   c25.9,0,51.8-0.2,77.7,0c22.9,0.2,44.7,8.5,59.4,25.8c15.2,18,18.6,44.5,13.8,66.8c-4.9,22.5-20.2,40.3-42.3,48.6   c-5.4,2-10.9,3.3-16.6,4.3C187.5,278.5,186.4,278.6,185.2,278.8L185.2,278.8z M286.6,364.7h1.5c29.2,0,58.5,0.9,87.7-0.1   c22.7-0.8,48-6.9,57.3-29.5c8.1-19.8,3.5-46.5-16.6-57.6c-10.2-5.6-22.9-7.7-34.5-9c-6.2-0.7-12.5-1-18.7-1.1   c-5.5-0.1-9.5-3.3-14.2-6c-10.5-6.1-21-12.2-31.5-18.3c-5.4-3.1-10.7-6.2-16.1-9.4c-2.9-1.7-5.8-3.4-8.7-5.1   c-1.9-1.1-4.1-2.9-6.3-3.4C286.6,271.7,286.6,318.1,286.6,364.7L286.6,364.7z M286.6,197.1c0.1,0.1,0.2,0.2,0.3,0.2   c23.1,12.8,46.3,25.6,69.4,38.4c2.9,1.6,5.7,3.1,8.5,4.7c2.1,1.2,4.3,2.8,6.7,3.2c5.2,0.7,11.5-0.5,16.6-1.4   c10-1.8,20.1-6.3,27.5-13.3c14.7-14,14.8-40,2.2-55.4c-14.3-17.4-39.8-16.3-60.4-16.4c-23.6,0-47.2,0-70.8,0V197.1z M168.8,256.4   c3.3-0.4,6.6-0.7,9.8-1.2c15.7-2.1,31.3-10.9,37.8-25.5c5.5-12.3,5.9-28.2,2-41.1c-3.9-13.1-13.8-22.5-26.7-27.6   c-14.6-5.7-30.4-4.5-45.8-4.5c-16.1,0-32.2,0-48.3,0C121.5,189.9,145.1,223,168.8,256.4L168.8,256.4z M135.6,256.2   c-18-25.2-35.9-50.2-53.8-75.2c-0.1,0-0.2,0-0.2,0c-0.3,5.4-0.2,74.1,0.2,75.2C99.6,256.2,117.4,256.2,135.6,256.2z"/>
</svg>