<?xml version="1.0" encoding="utf-8"?>
<!-- Generator: Adobe Illustrator 27.1.0, SVG Export Plug-In . SVG Version: 6.00 Build 0)  -->
<svg version="1.1" id="person" xmlns="http://www.w3.org/2000/svg" xmlns:xlink="http://www.w3.org/1999/xlink" x="0px" y="0px"
	 viewBox="0 0 24 24" style="enable-background:new 0 0 24 24;" xml:space="preserve">
<style type="text/css">
	.st0{fill:#475569;}
	.st1{fill:#CBD5E1;}
</style>
<path class="st0" d="M0,0h24v24H0V0z"/>
<path class="st1" d="M11.5,11.7c2.1,0.3,4-1.5,3.6-3.6c-0.2-1.3-1.3-2.4-2.6-2.6c-2.1-0.3-4,1.5-3.6,3.6
	C9.1,10.4,10.2,11.5,11.5,11.7z M12,13.3c-2.1,0-6.3,1.1-6.3,3.2v0c0,0.9,0.7,1.6,1.6,1.6h9.5c0.9,0,1.6-0.7,1.6-1.6v0
	C18.3,14.3,14.1,13.3,12,13.3z"/>
</svg>
